<?xml version="1.0" encoding="utf-8"?>
<!-- Generator: Adobe Illustrator 22.0.0, SVG Export Plug-In . SVG Version: 6.00 Build 0)  -->
<svg version="1.1" xmlns="http://www.w3.org/2000/svg" xmlns:xlink="http://www.w3.org/1999/xlink" x="0px" y="0px"
	 viewBox="0 0 543.9 561.5" style="enable-background:new 0 0 543.9 561.5;" xml:space="preserve">
<style type="text/css">
	.st0{fill:none;}
	.st1{fill:url(#XMLID_3_);}
	.st2{fill:url(#XMLID_5_);}
	.st3{fill:url(#XMLID_6_);}
	.st4{fill:url(#XMLID_9_);}
	.st5{display:none;}
	.st6{display:inline;}
	.st7{fill:url(#XMLID_10_);}
	.st8{fill:url(#XMLID_11_);}
	.st9{fill:url(#XMLID_12_);}
</style>
<g id="Layer_1">
	<g id="XMLID_74_">
		<path id="XMLID_75_" class="st0" d="M432.4,277.9c0,83.6-67.8,151.3-151.3,151.3c-62.8,0-116.6-38.2-139.5-92.6
			c-2.6,2.1-5.1,4.3-7.7,6.4c25,56.5,81.5,95.8,147.2,95.8c88.9,0,161-72.1,161-161c0-36-11.8-69.2-31.7-96
			c-3.1,1.2-6.3,2.4-9.4,3.6C420.6,211.1,432.4,243.1,432.4,277.9z"/>
		<path id="XMLID_78_" class="st0" d="M281,116.9c-88.9,0-161,72.1-161,161c0,23.2,4.9,45.2,13.7,65.1c2.6-2.2,5.1-4.3,7.7-6.4
			c-7.6-18-11.8-37.9-11.8-58.7c0-83.6,67.8-151.3,151.3-151.3c48.8,0,92.2,23.1,119.8,58.9c3.1-1.2,6.3-2.4,9.4-3.6
			C380.9,142.5,334,116.9,281,116.9z"/>
		<linearGradient id="XMLID_3_" gradientUnits="userSpaceOnUse" x1="43.2027" y1="339.7707" x2="518.8867" y2="339.7707">
			<stop  offset="0" style="stop-color:#0D1322"/>
			<stop  offset="0.3772" style="stop-color:#192433"/>
			<stop  offset="1" style="stop-color:#314955"/>
		</linearGradient>
		<path id="XMLID_79_" class="st1" d="M518.9,199.8l-25.6-44.5c-28.1,7.5-55.8,16.4-83.1,26.6c19.9,26.8,31.7,60,31.7,96
			c0,88.9-72.1,161-161,161c-65.7,0-122.2-39.4-147.2-95.8c-22.3,18.7-43.7,38.5-64.1,59.3l25,43.6c13.2-7.6,28.5-11.8,44.9-11.8
			c49.7,0,90,40.2,90,90.2h103c0-50,40.3-90.2,90-90.2c16.3,0,31.5,4.2,44.7,11.8l51.6-89.8c-27-15.5-45.3-44.7-45.3-78.2
			C473.6,244.5,491.8,215.3,518.9,199.8z"/>
		<linearGradient id="XMLID_5_" gradientUnits="userSpaceOnUse" x1="74.9525" y1="144.368" x2="411.5691" y2="338.7137">
			<stop  offset="0" style="stop-color:#566973"/>
			<stop  offset="0.1582" style="stop-color:#314955"/>
			<stop  offset="0.6825" style="stop-color:#192433"/>
			<stop  offset="1" style="stop-color:#0D1322"/>
		</linearGradient>
		<path id="XMLID_80_" class="st2" d="M133.8,343c-8.8-19.9-13.7-41.9-13.7-65.1c0-88.9,72.1-161,161-161c52.9,0,99.9,25.6,129.2,65
			c27.3-10.2,55-19.1,83.1-26.6l-26-45.3c-13.2,7.5-28.4,12-44.7,12c-49.7,0-90-40.8-90-89.8h-103c0,49-40.3,89.8-90,89.8
			c-16.3,0-31.6-4.4-44.9-12l-51.6,89.7c27.1,15.5,45.4,44.7,45.4,78.2s-18.3,62.7-45.4,78.2l26.5,46.2
			C90.1,381.5,111.5,361.7,133.8,343z"/>
		<linearGradient id="XMLID_6_" gradientUnits="userSpaceOnUse" x1="129.7114" y1="307.3651" x2="432.3776" y2="307.3651">
			<stop  offset="0" style="stop-color:#314955"/>
			<stop  offset="0.6228" style="stop-color:#192433"/>
			<stop  offset="1" style="stop-color:#0D1322"/>
		</linearGradient>
		<path id="XMLID_81_" class="st3" d="M281,429.2c83.6,0,151.3-67.8,151.3-151.3c0-34.8-11.7-66.8-31.5-92.4
			c-8.2,3.1-16.3,6.4-24.4,9.8c19.2,22.1,30.8,51,30.8,82.6c0,69.7-56.5,126.2-126.2,126.2c-54.9,0-101.6-35-119-83.9
			c-6.9,5.4-13.8,10.9-20.6,16.4C164.4,391,218.3,429.2,281,429.2z"/>
		<linearGradient id="XMLID_9_" gradientUnits="userSpaceOnUse" x1="129.7115" y1="231.5792" x2="432.3785" y2="231.5792">
			<stop  offset="0" style="stop-color:#0D1322"/>
			<stop  offset="0.3772" style="stop-color:#192433"/>
			<stop  offset="1" style="stop-color:#314955"/>
		</linearGradient>
		<path id="XMLID_82_" class="st4" d="M154.8,277.9c0-69.7,56.5-126.2,126.2-126.2c38.1,0,72.3,16.9,95.4,43.6
			c8.1-3.4,16.2-6.6,24.4-9.8c-27.7-35.8-71.1-58.9-119.8-58.9c-83.6,0-151.3,67.8-151.3,151.3c0,20.8,4.2,40.6,11.8,58.7
			c6.8-5.6,13.6-11,20.6-16.4C157.4,307,154.8,292.7,154.8,277.9z"/>
	</g>
</g>
<g id="Layer_2" class="st5">
	<g class="st6">
		<g id="XMLID_4_">
			<linearGradient id="XMLID_10_" gradientUnits="userSpaceOnUse" x1="211.583" y1="230.4035" x2="350.5063" y2="230.4035">
				<stop  offset="0" style="stop-color:#0D1322"/>
				<stop  offset="0.3175" style="stop-color:#192433"/>
				<stop  offset="0.8418" style="stop-color:#314955"/>
				<stop  offset="1" style="stop-color:#566973"/>
			</linearGradient>
			<path id="XMLID_7_" class="st7" d="M272.3,185.2c8.9,18.7-2,40.5-16.1,56.3c-10.3,11.5-22.6,21.9-31.7,34.1
				c31.7-20.5,64.7-39,98.7-55.6C309.9,204.5,292.4,192.1,272.3,185.2z"/>
			<linearGradient id="XMLID_11_" gradientUnits="userSpaceOnUse" x1="211.583" y1="295.6223" x2="350.5067" y2="295.6223">
				<stop  offset="0" style="stop-color:#314955"/>
				<stop  offset="0.6228" style="stop-color:#192433"/>
				<stop  offset="1" style="stop-color:#0D1322"/>
			</linearGradient>
			<path id="XMLID_8_" class="st8" d="M222.2,345.4c23.4,32.7,73.9,33.7,103.1,6.9c14.6-13.4,22.4-32.2,24.6-51.2
				c3.3-28.9-7.3-58.3-26.7-81.1c-34,16.5-67,35.1-98.7,55.6c-3.3,4.5-6.2,9.1-8.4,14.2C208.3,307.8,210.7,329.2,222.2,345.4z"/>
		</g>
		<linearGradient id="XMLID_12_" gradientUnits="userSpaceOnUse" x1="257.7241" y1="340.2093" x2="318.3656" y2="340.2093">
			<stop  offset="0" style="stop-color:#566973"/>
			<stop  offset="1" style="stop-color:#314955;stop-opacity:0"/>
		</linearGradient>
		<path id="XMLID_1_" class="st9" d="M288.9,340.1c12.6,1.3,25.5-7.1,29.4-19.1c0.2,13.2-7.1,26.3-18.5,33
			c-9.4,5.5-32.8,9.4-40.6-1.6c-3.6-5.1-0.4-11.5,4.8-14.1C272,334.3,280.9,339.2,288.9,340.1z"/>
	</g>
</g>
</svg>
